# Blender v2.79 (sub 0) OBJ File: ''
# www.blender.org
mtllib LAnklePitch.mtl
o LAnklePitch_LAnkle.009
v 0.014502 -0.041282 -0.011758
v 0.019202 -0.041282 -0.011758
v 0.019202 -0.041282 0.012342
v 0.014502 -0.041282 0.012342
v 0.039459 -0.022291 -0.011758
v 0.039459 -0.022291 0.012342
v 0.031946 -0.032326 0.012342
v 0.031946 -0.032326 -0.011758
v 0.043840 -0.010545 -0.011758
v 0.043840 -0.010545 0.012342
v 0.044734 0.001960 -0.011758
v 0.044734 0.001960 0.012342
v 0.042069 0.014209 -0.011758
v 0.042069 0.014209 0.012342
v 0.036061 0.025212 -0.011758
v 0.036061 0.025212 0.012342
v 0.027197 0.034077 -0.011758
v 0.027197 0.034077 0.012342
v 0.016194 0.040085 -0.011758
v 0.016194 0.040085 0.012342
v 0.008328 0.042849 -0.011758
v 0.008328 0.042849 0.012342
v 0.025610 -0.037739 0.012342
v 0.025610 -0.037739 -0.011758
v 0.014593 -0.038797 -0.014417
v 0.018992 -0.038797 -0.014417
v 0.030921 -0.030414 -0.014417
v 0.037953 -0.021020 -0.014417
v 0.042053 -0.010026 -0.014417
v 0.042890 0.001678 -0.014417
v 0.040396 0.013144 -0.014417
v 0.034773 0.023442 -0.014417
v 0.026475 0.031740 -0.014417
v 0.016177 0.037363 -0.014417
v 0.008328 0.039957 -0.014417
v 0.025227 -0.035345 -0.014417
v -0.015804 0.031118 -0.006622
v -0.012142 0.031118 -0.012102
v -0.012142 -0.029383 -0.012102
v -0.015804 -0.029383 -0.006622
v -0.017090 0.031118 -0.000158
v -0.017090 -0.029383 -0.000158
v -0.015804 0.031118 0.006306
v -0.015804 -0.029382 0.006306
v -0.012142 0.031118 0.011786
v -0.012142 -0.029382 0.011786
v -0.009402 0.031118 -0.014393
v -0.009402 -0.029383 -0.014393
v -0.009402 0.031118 0.014077
v -0.009402 -0.029382 0.014077
v -0.012142 -0.029383 -0.012102
v -0.009402 -0.029383 -0.014393
v -0.009402 -0.029382 0.014077
v -0.012142 -0.029382 0.011786
v -0.015804 -0.029382 0.006306
v -0.015804 -0.029383 -0.006622
v -0.017090 -0.029383 -0.000158
v -0.012142 0.031118 -0.012102
v -0.012142 0.031118 0.011786
v -0.009402 0.031118 0.014077
v -0.009402 0.031118 -0.014393
v -0.015804 0.031118 -0.006622
v -0.015804 0.031118 0.006306
v -0.017090 0.031118 -0.000158
v 0.018992 -0.038797 0.014101
v 0.014593 -0.038797 0.014101
v 0.030921 -0.030414 0.014101
v 0.025227 -0.035345 0.014101
v 0.037953 -0.021020 0.014101
v 0.042053 -0.010026 0.014101
v 0.042890 0.001678 0.014101
v 0.040396 0.013144 0.014101
v 0.034773 0.023442 0.014101
v 0.026475 0.031740 0.014101
v 0.016177 0.037363 0.014101
v 0.008328 0.039957 0.014101
v 0.037953 -0.021020 -0.014417
v 0.040396 0.013144 -0.014417
v 0.042890 0.001678 -0.014417
v 0.042053 -0.010026 -0.014417
v 0.030921 -0.030414 -0.014417
v 0.034773 0.023442 -0.014417
v 0.025227 -0.035345 -0.014417
v 0.026475 0.031740 -0.014417
v 0.008598 0.031118 -0.014417
v 0.008598 -0.029382 -0.014417
v 0.008598 -0.029382 0.014101
v 0.008598 0.031118 0.014101
v 0.008598 -0.029382 -0.014417
v 0.008598 -0.029382 0.014101
v 0.008598 0.031118 0.014101
v 0.008598 0.031118 -0.014417
v 0.008328 0.042849 -0.011758
v 0.008328 0.039957 -0.014417
v 0.008328 0.039957 0.014101
v 0.008328 0.042849 0.012342
v 0.014502 -0.041282 -0.011758
v 0.014502 -0.041282 0.012342
v 0.014593 -0.038797 0.014101
v 0.014593 -0.038797 -0.014417
v 0.015598 0.031118 -0.014417
v 0.015598 -0.029382 -0.014417
v 0.015598 -0.029382 0.014101
v 0.015598 0.031118 0.014101
v 0.015598 -0.029382 -0.014417
v 0.015598 -0.029382 0.014101
v 0.008328 0.039957 -0.014417
v 0.008598 0.031118 -0.014417
v 0.008598 0.031118 0.014101
v 0.008328 0.039957 0.014101
v 0.016177 0.037363 -0.014417
v 0.008328 0.039957 -0.014417
v 0.008328 0.039957 0.014101
v 0.016177 0.037363 0.014101
v 0.015598 -0.029382 0.014101
v 0.015598 -0.029382 -0.014417
v 0.014593 -0.038797 -0.014417
v 0.018992 -0.038797 -0.014417
v 0.025227 -0.035345 0.014101
v 0.014593 -0.038797 0.014101
v 0.018992 -0.038797 0.014101
v 0.026475 0.031740 0.014101
v 0.030921 -0.030414 0.014101
v 0.034773 0.023442 0.014101
v 0.037953 -0.021020 0.014101
v 0.040396 0.013144 0.014101
v 0.042053 -0.010026 0.014101
v 0.042890 0.001678 0.014101
vt 0.130440 0.767209
vt 0.132224 0.769345
vt 0.110038 0.769337
vt 0.111824 0.767202
vt 0.116095 0.764350
vt 0.126170 0.764354
vt 0.121133 0.763350
vt 0.111816 0.805031
vt 0.110031 0.802896
vt 0.132217 0.802896
vt 0.130433 0.805031
vt 0.126162 0.807884
vt 0.116087 0.807884
vt 0.121124 0.808886
vt 0.096118 0.767198
vt 0.069495 0.765294
vt 0.078430 0.763350
vt 0.103438 0.772678
vt 0.061469 0.769676
vt 0.107282 0.777115
vt 0.055003 0.776142
vt 0.132238 0.783372
vt 0.110015 0.783364
vt 0.110013 0.788868
vt 0.130164 0.825220
vt 0.132236 0.827473
vt 0.110013 0.827473
vt 0.102634 0.790074
vt 0.055488 0.790073
vt 0.055488 0.784618
vt 0.055487 0.844239
vt 0.102633 0.844239
vt 0.102633 0.849694
vt 0.132236 0.788827
vt 0.132236 0.818286
vt 0.132236 0.825178
vt 0.110013 0.825178
vt 0.050621 0.784167
vt 0.055487 0.849694
vt 0.050620 0.850145
vt 0.102635 0.784619
vt 0.109971 0.781974
vt 0.109970 0.848911
vt 0.109970 0.852339
vt 0.055003 0.858170
vt 0.107280 0.857198
vt 0.103437 0.861634
vt 0.061468 0.864636
vt 0.096117 0.867114
vt 0.087549 0.870310
vt 0.078429 0.870962
vt 0.087551 0.764003
vt 0.132236 0.788868
vt 0.111383 0.825220
vt 0.110013 0.788819
vt 0.110013 0.818286
vt 0.048599 0.790284
vt 0.048599 0.844028
vt 0.109971 0.785402
vt 0.069494 0.869018
vt 0.139472 0.892676
vt 0.135837 0.892261
vt 0.135678 0.874287
vt 0.113935 0.892841
vt 0.113824 0.874529
vt 0.123494 0.874246
vt 0.104303 0.874690
vt 0.094782 0.874771
vt 0.104284 0.892985
vt 0.084884 0.893140
vt 0.085123 0.874766
vt 0.075078 0.893134
vt 0.075422 0.874727
vt 0.065680 0.874605
vt 0.055352 0.893300
vt 0.055745 0.874157
vt 0.048887 0.873703
vt 0.123742 0.892717
vt 0.129981 0.874177
vt 0.130246 0.892534
vt 0.138992 0.895621
vt 0.135421 0.895130
vt 0.123226 0.895443
vt 0.113643 0.895468
vt 0.104210 0.895509
vt 0.094793 0.895663
vt 0.094643 0.893078
vt 0.085234 0.895788
vt 0.075607 0.895865
vt 0.065956 0.895951
vt 0.065252 0.893118
vt 0.056334 0.896247
vt 0.049506 0.896650
vt 0.129492 0.895341
vt 0.055487 0.812020
vt 0.055487 0.806884
vt 0.102634 0.806884
vt 0.055487 0.817156
vt 0.102634 0.812020
vt 0.055487 0.822293
vt 0.102634 0.817157
vt 0.055487 0.827429
vt 0.102634 0.822293
vt 0.055487 0.804101
vt 0.102634 0.804101
vt 0.055487 0.830212
vt 0.102634 0.827429
vt 0.139472 0.873721
vt 0.135180 0.871828
vt 0.122874 0.872094
vt 0.129105 0.871897
vt 0.113453 0.872480
vt 0.104175 0.872733
vt 0.094899 0.872752
vt 0.085467 0.872683
vt 0.075971 0.872550
vt 0.066431 0.872297
vt 0.056806 0.871701
vt 0.049903 0.871004
vt 0.102634 0.830212
vt 0.130164 0.818245
vt 0.111383 0.818245
vt 0.110013 0.816306
vt 0.110013 0.808928
vt 0.132236 0.808928
vt 0.048599 0.893496
vt 0.138922 0.871144
vt 0.132236 0.816306
vn 0.0000 -1.0000 0.0000
vn 0.0000 1.0000 0.0000
vn -0.0000 0.0000 -1.0000
vn -1.0000 0.0000 0.0000
vn 0.0000 0.0000 1.0000
vn -0.9995 -0.0306 0.0000
vn 0.0000 -0.9313 -0.3641
vn 0.2286 -0.9096 -0.3468
vn 0.2200 -0.8753 0.4306
vn 0.8348 -0.4606 -0.3014
vn 0.8054 -0.4448 0.3917
vn 0.6628 -0.6279 0.4079
vn 0.9024 -0.1978 0.3827
vn 0.9212 0.0676 0.3831
vn 0.9341 -0.2046 -0.2926
vn 0.8915 0.3371 -0.3025
vn 0.8600 0.3257 0.3928
vn 0.7548 0.5730 -0.3194
vn 0.7264 0.5519 0.4094
vn 0.5352 0.7273 0.4297
vn 0.3709 0.8536 -0.3657
vn 0.3551 0.8169 0.4545
vn 0.2994 0.8518 0.4298
vn 0.6890 -0.6520 -0.3165
vn 0.5101 -0.7486 0.4235
vn 0.5314 -0.7792 -0.3324
vn 0.0000 -0.7304 -0.6829
vn 0.1992 -0.7078 -0.6777
vn 0.5882 -0.5316 -0.6093
vn 0.7152 -0.3797 -0.5867
vn 0.8019 -0.1712 -0.5723
vn 0.8177 0.0548 -0.5729
vn 0.9536 0.0698 -0.2929
vn 0.7609 0.2732 -0.5884
vn 0.6391 0.4602 -0.6162
vn 0.4683 0.5967 -0.6516
vn 0.5573 0.7570 -0.3409
vn 0.3024 0.6651 -0.6828
vn 0.2297 0.6641 -0.7115
vn 0.4547 -0.6271 -0.6324
vn -0.9239 0.0000 -0.3827
vn -0.7440 0.0000 -0.6682
vn -0.9239 0.0000 0.3827
vn -0.7440 0.0000 0.6682
vn -0.3418 0.0000 -0.9398
vn -0.3418 0.0000 0.9398
vn 0.0000 -0.8904 0.4552
vn 0.1610 -0.5608 0.8121
vn 0.4860 -0.4359 0.7575
vn 0.3724 -0.5089 0.7761
vn 0.5968 -0.3143 0.7382
vn 0.6729 -0.1429 0.7258
vn 0.6859 0.0450 0.7263
vn 0.6341 0.2252 0.7397
vn 0.5262 0.3751 0.7631
vn 0.3796 0.4786 0.7917
vn 0.2412 0.5257 0.8158
vn 0.1789 0.5160 0.8377
vn -0.0004 0.0000 -1.0000
vn -0.0006 0.0000 1.0000
vn -0.9993 0.0365 0.0000
vn -0.9968 0.0798 0.0000
vn -0.9943 0.1061 0.0000
vn 0.3099 0.8819 -0.3553
vn 0.0000 -0.5775 0.8163
vn -0.0006 0.0000 -1.0000
vn -0.0004 0.0000 1.0000
vn -0.9965 0.0836 0.0000
usemtl RanklePitchUV.009
s off
f 51/1/1 52/2/1 53/3/1
f 51/1/1 54/4/1 55/5/1
f 56/6/1 55/5/1 57/7/1
f 59/8/2 60/9/2 61/10/2
f 58/11/2 62/12/2 63/13/2
f 62/12/2 64/14/2 63/13/2
f 77/15/3 78/16/3 79/17/3
f 77/15/3 81/18/3 82/19/3
f 83/20/3 84/21/3 82/19/3
f 89/22/1 90/23/1 53/3/1
f 61/10/2 60/9/2 91/24/2
f 93/25/4 94/26/4 95/27/4
f 86/28/3 85/29/3 101/30/3
f 88/31/5 87/32/5 103/33/5
f 90/23/1 89/22/1 105/34/1
f 107/35/6 108/36/6 109/37/6
f 111/38/3 101/30/3 85/29/3
f 88/31/5 104/39/5 114/40/5
f 84/21/3 101/30/3 111/38/3
f 84/21/3 83/20/3 102/41/3
f 102/41/3 83/20/3 118/42/3
f 103/33/5 120/43/5 121/44/5
f 114/40/5 104/39/5 122/45/5
f 122/45/5 104/39/5 103/33/5
f 119/46/5 123/47/5 124/48/5
f 124/48/5 123/47/5 125/49/5
f 125/49/5 127/50/5 128/51/5
f 54/4/1 51/1/1 53/3/1
f 56/6/1 51/1/1 55/5/1
f 58/11/2 59/8/2 61/10/2
f 59/8/2 58/11/2 63/13/2
f 80/52/3 77/15/3 79/17/3
f 78/16/3 77/15/3 82/19/3
f 81/18/3 83/20/3 82/19/3
f 52/2/1 89/22/1 53/3/1
f 92/53/2 61/10/2 91/24/2
f 96/54/4 93/25/4 95/27/4
f 102/41/3 86/28/3 101/30/3
f 104/39/5 88/31/5 103/33/5
f 106/55/1 90/23/1 105/34/1
f 110/56/6 107/35/6 109/37/6
f 112/57/3 111/38/3 85/29/3
f 113/58/5 88/31/5 114/40/5
f 101/30/3 84/21/3 102/41/3
f 117/59/3 102/41/3 118/42/3
f 119/46/5 103/33/5 121/44/5
f 119/46/5 122/45/5 103/33/5
f 122/45/5 119/46/5 124/48/5
f 126/60/5 124/48/5 125/49/5
f 126/60/5 125/49/5 128/51/5
s 1
f 1/61/7 2/62/8 3/63/9
f 5/64/10 6/65/11 7/66/12
f 10/67/13 6/65/11 5/64/10
f 12/68/14 10/67/13 9/69/15
f 13/70/16 14/71/17 12/68/14
f 15/72/18 16/73/19 14/71/17
f 18/74/20 16/73/19 15/72/18
f 19/75/21 20/76/22 18/74/20
f 22/77/23 20/76/22 19/75/21
f 8/78/24 7/66/12 23/79/25
f 2/62/8 24/80/26 23/79/25
f 1/61/7 25/81/27 26/82/28
f 27/83/29 28/84/30 5/64/10
f 28/84/30 29/85/31 9/69/15
f 9/69/15 29/85/31 30/86/32
f 11/87/33 30/86/32 31/88/34
f 13/70/16 31/88/34 32/89/35
f 15/72/18 32/89/35 33/90/36
f 17/91/37 33/90/36 34/92/38
f 19/75/21 34/92/38 35/93/39
f 36/94/40 27/83/29 8/78/24
f 26/82/28 36/94/40 24/80/26
f 37/95/41 38/96/42 39/97/42
f 41/98/4 37/95/41 40/99/41
f 43/100/43 41/98/4 42/101/4
f 45/102/44 43/100/43 44/103/43
f 38/96/42 47/104/45 48/105/45
f 49/106/46 45/102/44 46/107/44
f 4/108/47 3/63/9 65/109/48
f 7/66/12 67/110/49 68/111/50
f 23/79/25 68/111/50 65/109/48
f 6/65/11 69/112/51 67/110/49
f 10/67/13 70/113/52 69/112/51
f 10/67/13 12/68/14 71/114/53
f 12/68/14 14/71/17 72/115/54
f 14/71/17 16/73/19 73/116/55
f 16/73/19 18/74/20 74/117/56
f 18/74/20 20/76/22 75/118/57
f 20/76/22 22/77/23 76/119/58
f 48/105/45 47/104/45 85/29/59
f 49/106/46 50/120/46 87/32/60
f 97/121/61 98/122/61 99/123/62
f 99/123/62 115/124/63 116/125/63
f 4/108/47 1/61/7 3/63/9
f 8/78/24 5/64/10 7/66/12
f 9/69/15 10/67/13 5/64/10
f 11/87/33 12/68/14 9/69/15
f 11/87/33 13/70/16 12/68/14
f 13/70/16 15/72/18 14/71/17
f 17/91/37 18/74/20 15/72/18
f 17/91/37 19/75/21 18/74/20
f 21/126/64 22/77/23 19/75/21
f 24/80/26 8/78/24 23/79/25
f 3/63/9 2/62/8 23/79/25
f 2/62/8 1/61/7 26/82/28
f 8/78/24 27/83/29 5/64/10
f 5/64/10 28/84/30 9/69/15
f 11/87/33 9/69/15 30/86/32
f 13/70/16 11/87/33 31/88/34
f 15/72/18 13/70/16 32/89/35
f 17/91/37 15/72/18 33/90/36
f 19/75/21 17/91/37 34/92/38
f 21/126/64 19/75/21 35/93/39
f 24/80/26 36/94/40 8/78/24
f 2/62/8 26/82/28 24/80/26
f 40/99/41 37/95/41 39/97/42
f 42/101/4 41/98/4 40/99/41
f 44/103/43 43/100/43 42/101/4
f 46/107/44 45/102/44 44/103/43
f 39/97/42 38/96/42 48/105/45
f 50/120/46 49/106/46 46/107/44
f 66/127/65 4/108/47 65/109/48
f 23/79/25 7/66/12 68/111/50
f 3/63/9 23/79/25 65/109/48
f 7/66/12 6/65/11 67/110/49
f 6/65/11 10/67/13 69/112/51
f 70/113/52 10/67/13 71/114/53
f 71/114/53 12/68/14 72/115/54
f 72/115/54 14/71/17 73/116/55
f 73/116/55 16/73/19 74/117/56
f 74/117/56 18/74/20 75/118/57
f 75/118/57 20/76/22 76/119/58
f 86/28/66 48/105/45 85/29/59
f 88/31/67 49/106/46 87/32/60
f 100/128/68 97/121/61 99/123/62
f 100/128/68 99/123/62 116/125/63
