# Blender v2.79 (sub 0) OBJ File: ''
# www.blender.org
mtllib LShoulderPitch.mtl
o LShoulderPitch_LShoulderPadMobile.009
v -0.011068 0.029745 0.025563
v -0.011068 0.024745 0.003999
v 0.014969 0.028183 0.025563
v 0.022128 0.021689 0.025563
v 0.022128 0.018688 0.007932
v 0.014969 0.023183 0.005013
v 0.027487 0.012685 0.025563
v 0.027487 0.012685 0.011831
v 0.030612 0.004977 0.025563
v 0.030612 0.004977 0.017021
v 0.025063 -0.018953 0.025563
v 0.025063 -0.018953 0.024475
v 0.031250 -0.002746 0.025563
v 0.029349 -0.011294 0.025563
v 0.029349 -0.011294 0.023810
v 0.031250 -0.002746 0.020918
v -0.015145 -0.027700 0.024475
v -0.015145 -0.027700 0.025563
v -0.030789 -0.006803 0.025563
v -0.030789 -0.006803 0.022575
v -0.031427 0.001137 0.025563
v -0.031427 0.001137 0.019058
v -0.002330 0.031339 0.025563
v 0.006590 0.030804 0.025563
v 0.006590 0.025804 0.003311
v -0.002330 0.026339 0.002963
v -0.018917 0.024150 0.025563
v -0.018917 0.021150 0.006333
v -0.029526 0.009265 0.025563
v -0.025240 0.015847 0.025563
v -0.025240 0.015847 0.009777
v -0.029526 0.009265 0.014052
v 0.018740 -0.025276 0.025563
v 0.010891 -0.029562 0.025563
v 0.010891 -0.029562 0.024475
v 0.018740 -0.025276 0.024475
v -0.022304 -0.022341 0.025563
v -0.027663 -0.015182 0.025563
v -0.027663 -0.015182 0.024475
v -0.022304 -0.022341 0.024475
v 0.002153 -0.031463 0.025563
v -0.006767 -0.030825 0.025563
v -0.006767 -0.030825 0.024475
v 0.002153 -0.031463 0.024475
v -0.011068 0.024745 0.003999
v -0.011646 0.026139 0.003037
v 0.014969 0.023183 0.005013
v 0.022128 0.018688 0.007932
v 0.023297 0.019764 0.007177
v 0.015761 0.024495 0.004105
v 0.027487 0.012685 0.011831
v 0.028938 0.013444 0.011282
v 0.030612 0.004977 0.017021
v 0.032228 0.005330 0.016745
v 0.025063 -0.018953 0.024475
v 0.026387 -0.019859 0.024591
v 0.031250 -0.002746 0.020918
v 0.029349 -0.011294 0.023810
v 0.030899 -0.011797 0.023891
v 0.032900 -0.002799 0.020847
v -0.015938 -0.029066 0.024591
v -0.015145 -0.027700 0.024475
v -0.030789 -0.006803 0.022575
v -0.032404 -0.007069 0.022591
v -0.031427 0.001137 0.019058
v -0.033076 0.001288 0.018889
v -0.002330 0.026339 0.002963
v 0.006590 0.025804 0.003311
v 0.006942 0.027254 0.002313
v -0.002448 0.027817 0.001948
v -0.018917 0.021150 0.006333
v -0.019908 0.022355 0.005495
v -0.029526 0.009265 0.014052
v -0.025240 0.015847 0.009777
v -0.026564 0.016773 0.009120
v -0.031075 0.009844 0.013619
v 0.018740 -0.025276 0.024475
v 0.010891 -0.029562 0.024475
v 0.011469 -0.031026 0.024591
v 0.019731 -0.026515 0.024591
v -0.022304 -0.022341 0.024475
v -0.027663 -0.015182 0.024475
v -0.029115 -0.015889 0.024591
v -0.023474 -0.023425 0.024591
v 0.002153 -0.031463 0.024475
v -0.006767 -0.030825 0.024475
v -0.007118 -0.032356 0.024591
v 0.002271 -0.033027 0.024591
v -0.015938 -0.029066 0.024591
v -0.015938 -0.029066 0.025791
v -0.033076 0.001288 0.018889
v 0.030899 -0.011797 0.023891
v 0.032228 0.005330 0.016745
v 0.015761 0.024495 0.004105
v 0.006942 0.027254 0.002313
v -0.002448 0.027817 0.001948
v -0.011646 0.026139 0.003037
v -0.019908 0.022355 0.005495
v -0.031075 0.009844 0.013619
v -0.026564 0.016773 0.009120
v 0.023297 0.019764 0.007177
v 0.028938 0.013444 0.011282
v 0.015761 0.027050 0.011148
v 0.006942 0.030179 0.010132
v -0.002448 0.030818 0.009924
v -0.011646 0.028915 0.010542
v -0.019908 0.024624 0.011936
v -0.026564 0.018294 0.013993
v -0.033076 0.001688 0.019389
v -0.031075 0.010436 0.016546
v 0.032900 -0.002799 0.020847
v 0.032228 0.006130 0.017945
v 0.023297 0.021685 0.012891
v 0.028938 0.014519 0.015220
v 0.015761 0.028636 0.017573
v 0.006942 0.031894 0.017115
v -0.002448 0.032559 0.017022
v -0.011646 0.030578 0.017300
v -0.019908 0.026110 0.017928
v -0.026564 0.019519 0.018854
v -0.031075 0.011337 0.020004
v -0.032404 -0.007069 0.022591
v -0.033076 0.002229 0.021284
v 0.032900 -0.002444 0.021941
v 0.032228 0.006854 0.020634
v 0.023297 0.023050 0.018358
v 0.028938 0.015588 0.019407
v 0.015761 0.028987 0.024591
v 0.015761 0.028987 0.025791
v 0.006942 0.032277 0.024591
v 0.006942 0.032277 0.025791
v -0.002448 0.032948 0.024591
v -0.002448 0.032948 0.025791
v -0.011646 0.030947 0.024591
v -0.011646 0.030947 0.025791
v -0.019908 0.026436 0.024591
v -0.019908 0.026436 0.025791
v -0.026564 0.019780 0.024591
v -0.026564 0.019780 0.025791
v -0.031075 0.011518 0.024591
v -0.031075 0.011518 0.025791
v -0.033076 0.002320 0.024591
v -0.033076 0.002320 0.025791
v -0.032404 -0.007069 0.024591
v -0.032404 -0.007069 0.025791
v -0.023474 -0.023425 0.025791
v -0.023474 -0.023425 0.024591
v -0.029115 -0.015889 0.024591
v -0.029115 -0.015889 0.025791
v -0.007118 -0.032356 0.024591
v -0.007118 -0.032356 0.025791
v 0.002271 -0.033027 0.024591
v 0.002271 -0.033027 0.025791
v 0.011469 -0.031026 0.024591
v 0.011469 -0.031026 0.025791
v 0.019731 -0.026515 0.024591
v 0.019731 -0.026515 0.025791
v 0.026387 -0.019859 0.024591
v 0.026387 -0.019859 0.025791
v 0.030899 -0.011597 0.024591
v 0.030899 -0.011597 0.025791
v 0.032900 -0.002399 0.024591
v 0.032900 -0.002399 0.025791
v 0.032228 0.006991 0.024591
v 0.032228 0.006991 0.025791
v 0.028938 0.015810 0.024591
v 0.028938 0.015810 0.025791
v 0.023297 0.023346 0.025791
v 0.023297 0.023346 0.024591
vt 0.157810 0.223013
vt 0.157943 0.221125
vt 0.167716 0.221133
vt 0.168095 0.223013
vt 0.106512 0.224393
vt 0.096797 0.229144
vt 0.096599 0.225564
vt 0.114255 0.167960
vt 0.120916 0.175120
vt 0.119935 0.175811
vt 0.125213 0.183794
vt 0.126797 0.193359
vt 0.125592 0.193385
vt 0.067709 0.151624
vt 0.079675 0.166478
vt 0.071162 0.172824
vt 0.063611 0.199982
vt 0.068170 0.207356
vt 0.046477 0.218688
vt 0.062504 0.193085
vt 0.039486 0.206595
vt 0.043674 0.168011
vt 0.065688 0.179357
vt 0.063204 0.185940
vt 0.053903 0.157576
vt 0.084026 0.152130
vt 0.087769 0.162854
vt 0.096268 0.156183
vt 0.096112 0.162014
vt 0.113501 0.168913
vt 0.105435 0.164159
vt 0.106165 0.162267
vt 0.121333 0.212039
vt 0.120334 0.211369
vt 0.124310 0.202761
vt 0.114870 0.219182
vt 0.114123 0.218283
vt 0.085538 0.232600
vt 0.088141 0.224794
vt 0.070676 0.232600
vt 0.080247 0.221171
vt 0.038135 0.180540
vt 0.057389 0.227816
vt 0.074281 0.215580
vt 0.124078 0.184170
vt 0.106022 0.223222
vt 0.125510 0.203112
vt 0.168148 0.151624
vt 0.178024 0.154730
vt 0.177185 0.156280
vt 0.126846 0.186738
vt 0.128581 0.186757
vt 0.129448 0.196549
vt 0.133009 0.167516
vt 0.134426 0.168447
vt 0.130252 0.177169
vt 0.199038 0.187720
vt 0.197519 0.197760
vt 0.195686 0.197151
vt 0.193240 0.206984
vt 0.191617 0.205915
vt 0.177927 0.220144
vt 0.177061 0.218413
vt 0.185242 0.213198
vt 0.147044 0.219478
vt 0.147691 0.217753
vt 0.138442 0.214342
vt 0.139504 0.212891
vt 0.127742 0.197022
vt 0.132829 0.205501
vt 0.131350 0.206499
vt 0.148952 0.156044
vt 0.140818 0.161220
vt 0.139731 0.159917
vt 0.158197 0.153337
vt 0.148287 0.154473
vt 0.186269 0.160138
vt 0.185009 0.161411
vt 0.193557 0.168410
vt 0.191927 0.169266
vt 0.186534 0.214651
vt 0.197680 0.177668
vt 0.197131 0.187612
vt 0.195843 0.178061
vt 0.128618 0.176679
vt 0.158017 0.151624
vt 0.167815 0.153334
vt 0.126750 0.094765
vt 0.127941 0.093978
vt 0.132431 0.103905
vt 0.133750 0.114596
vt 0.132371 0.114555
vt 0.131082 0.104275
vt 0.120297 0.085781
vt 0.109850 0.081172
vt 0.110485 0.078691
vt 0.099236 0.073920
vt 0.099709 0.073220
vt 0.098727 0.076349
vt 0.087071 0.072278
vt 0.086503 0.068062
vt 0.089033 0.150220
vt 0.100091 0.149504
vt 0.089038 0.151574
vt 0.099873 0.148713
vt 0.110307 0.146934
vt 0.089848 0.147408
vt 0.077890 0.149778
vt 0.077801 0.151574
vt 0.067358 0.144885
vt 0.052371 0.125889
vt 0.058465 0.136574
vt 0.051503 0.141954
vt 0.049593 0.113944
vt 0.041898 0.129881
vt 0.050366 0.101691
vt 0.037153 0.114712
vt 0.038370 0.098849
vt 0.044817 0.084093
vt 0.055247 0.090343
vt 0.056674 0.072880
vt 0.063479 0.080913
vt 0.071651 0.067400
vt 0.074531 0.074582
vt 0.063975 0.149366
vt 0.064039 0.132624
vt 0.059890 0.123243
vt 0.058052 0.113388
vt 0.062375 0.094612
vt 0.059017 0.103741
vt 0.068482 0.086578
vt 0.077030 0.080391
vt 0.087449 0.076816
vt 0.079028 0.146756
vt 0.070525 0.140784
vt 0.066781 0.121367
vt 0.069730 0.129682
vt 0.065049 0.113189
vt 0.065671 0.105235
vt 0.068480 0.097794
vt 0.073343 0.091121
vt 0.080193 0.085600
vt 0.088837 0.081777
vt 0.098852 0.080193
vt 0.081315 0.143312
vt 0.074548 0.137235
vt 0.067853 0.121050
vt 0.066093 0.113110
vt 0.066675 0.105451
vt 0.069399 0.098286
vt 0.074138 0.091877
vt 0.080805 0.086604
vt 0.089194 0.082989
vt 0.098901 0.081553
vt 0.109494 0.082585
vt 0.119420 0.087028
vt 0.131948 0.125028
vt 0.126061 0.133704
vt 0.130683 0.124613
vt 0.127204 0.134532
vt 0.119640 0.141970
vt 0.109850 0.145593
vt 0.118853 0.140898
vt 0.099847 0.147373
vt 0.090199 0.146211
vt 0.075461 0.136463
vt 0.081966 0.142348
vt 0.070736 0.129189
vt 0.037153 0.193672
vn -0.0218 -0.5581 -0.8295
vn 0.8819 0.4713 0.0000
vn 0.9815 0.1914 0.0000
vn 0.9762 0.2168 0.0000
vn -0.7994 0.6008 0.0000
vn -0.5993 0.8005 0.0000
vn -0.3494 0.9369 0.0000
vn -0.0713 0.9974 0.0000
vn -0.8516 -0.5218 0.0485
vn -0.8956 -0.4449 0.0000
vn -0.7488 -0.6571 0.0859
vn 0.3562 -0.9147 0.1908
vn 0.6672 -0.7400 0.0852
vn 0.5695 -0.8073 0.1549
vn 0.0597 -0.9735 0.2205
vn 0.3182 -0.9244 0.2101
vn -0.4404 -0.8740 0.2052
vn -0.4619 -0.8657 0.1928
vn -0.1780 -0.9587 0.2217
vn -0.6769 -0.7209 0.1484
vn -0.9605 -0.2783 0.0000
vn -0.9728 -0.2317 0.0000
vn -0.9995 0.0320 0.0000
vn -0.9977 0.0681 0.0000
vn -0.7974 0.6034 0.0000
vn -0.9343 0.3565 0.0000
vn -0.9402 0.3404 0.0000
vn 0.4792 0.8777 0.0000
vn 0.2126 0.9771 0.0000
vn 0.7071 0.7071 0.0000
vn 0.9927 -0.1202 0.0000
vn 0.9972 -0.0747 0.0000
vn 0.8951 -0.4459 0.0000
vn 0.9197 -0.3926 0.0000
vn -0.1929 -0.9576 0.2138
vn 0.7611 -0.6465 0.0525
vn 0.8173 -0.5761 0.0000
vn 0.8777 0.4792 0.0000
vn -0.0157 -0.1310 -0.9912
vn 0.0417 -0.3114 -0.9493
vn 0.0406 -0.3049 -0.9515
vn 0.0440 -0.0585 -0.9973
vn 0.0437 -0.0587 -0.9973
vn 0.0367 -0.0744 -0.9966
vn 0.0053 -0.0738 -0.9973
vn 0.0052 -0.0738 -0.9973
vn 0.0256 -0.0691 -0.9973
vn 0.0158 -0.5623 -0.8267
vn 0.0091 -0.5651 -0.8249
vn 0.0092 -0.5651 -0.8250
vn 0.0018 -0.5663 -0.8242
vn 0.0019 -0.5663 -0.8242
vn -0.0126 -0.5639 -0.8257
vn -0.0128 -0.5639 -0.8257
vn -0.0056 -0.5659 -0.8245
vn -0.0188 -0.5604 -0.8280
vn -0.0190 -0.5602 -0.8281
vn -0.0345 -0.5121 -0.8582
vn -0.0360 -0.5072 -0.8610
vn -0.0197 -0.5609 -0.8276
vn -0.0519 -0.3854 -0.9213
vn -0.0518 -0.3805 -0.9233
vn 0.0358 -0.0757 -0.9965
vn -0.0143 -0.2026 -0.9792
vn -0.0163 -0.2084 -0.9779
vn -0.0350 -0.0646 -0.9973
vn -0.0156 -0.0722 -0.9973
vn -0.0157 -0.0722 -0.9973
vn -0.0513 -0.0517 -0.9973
vn -0.0353 -0.0644 -0.9973
vn 0.0470 -0.4697 -0.8815
vn 0.0478 -0.4642 -0.8844
vn 0.0306 -0.5438 -0.8386
vn 0.0314 -0.5424 -0.8395
vn -0.0055 -0.5659 -0.8244
vn 0.0215 -0.5581 -0.8295
vn 0.0160 -0.5622 -0.8268
vn 0.0217 -0.5579 -0.8296
vn 0.0258 -0.0690 -0.9973
vn -0.0516 -0.0513 -0.9973
vn -0.0178 -0.1266 -0.9918
vn -0.7071 -0.7071 0.0000
vn -0.4792 -0.8777 0.0000
vn -0.2126 -0.9771 0.0000
vn -0.8819 -0.4713 0.0000
vn -0.9771 -0.2126 0.0000
vn -0.9825 -0.1859 0.0024
vn -0.9958 0.0791 -0.0446
vn -0.9984 0.0482 -0.0275
vn -0.9966 0.0810 -0.0125
vn -0.9379 0.3377 -0.0795
vn -0.9250 0.3705 -0.0840
vn 0.9985 -0.0540 0.0093
vn 0.9313 -0.3512 0.0960
vn 0.9981 -0.0583 0.0179
vn 0.9400 -0.3378 0.0468
vn 0.8025 -0.5965 0.0032
vn 0.9976 -0.0696 0.0012
vn 0.9736 0.2069 -0.0961
vn 0.9777 0.1816 -0.1052
vn 0.8788 0.4606 -0.1245
vn 0.4753 0.8422 -0.2544
vn 0.7029 0.6832 -0.1977
vn 0.6884 0.6860 -0.2355
vn 0.2103 0.9344 -0.2876
vn 0.4635 0.8321 -0.3044
vn -0.0705 0.9531 -0.2944
vn 0.2043 0.9167 -0.3434
vn -0.0684 0.9337 -0.3513
vn -0.3370 0.8825 -0.3279
vn -0.3462 0.8972 -0.2741
vn -0.5815 0.7662 -0.2734
vn -0.5950 0.7704 -0.2288
vn -0.7822 0.5930 -0.1911
vn -0.7969 0.5820 -0.1617
vn 0.8666 0.4794 -0.1383
vn 0.7030 0.7036 -0.1035
vn 0.4758 0.8701 -0.1279
vn 0.2108 0.9671 -0.1422
vn -0.3468 0.9279 -0.1364
vn -0.0707 0.9869 -0.1451
vn -0.5954 0.7949 -0.1169
vn -0.7965 0.5982 -0.0881
vn -0.9340 0.3535 -0.0524
vn 0.9751 0.2192 -0.0328
vn 0.8740 0.4806 -0.0709
vn 0.4780 0.8781 -0.0217
vn 0.7057 0.7082 -0.0166
vn 0.2119 0.9770 -0.0248
vn -0.0711 0.9971 -0.0255
vn -0.3485 0.9370 -0.0236
vn -0.5979 0.8013 -0.0194
vn -0.7993 0.6007 -0.0135
vn -0.9363 0.3511 -0.0068
vn -0.9973 0.0725 -0.0011
vn 0.9768 0.2141 -0.0037
vn 0.8767 0.4809 -0.0102
vn -0.8005 0.5993 0.0000
vn -0.9369 0.3494 0.0000
vn -0.9974 0.0713 0.0000
vn -0.8777 -0.4792 0.0000
vn 0.0713 -0.9974 0.0000
vn 0.3494 -0.9369 0.0000
vn 0.5993 -0.8005 0.0000
vn 0.8005 -0.5993 0.0000
vn 0.9369 -0.3494 0.0000
vn 0.9974 -0.0713 0.0000
vn 0.9771 0.2126 0.0000
vn 0.0648 -0.9743 0.2156
vn -0.0199 -0.5606 -0.8278
usemtl NaoMat_MainSkin.338
s off
f 52/1/1 51/2/1 48/3/1
f 49/4/1 52/1/1 48/3/1
s 1
f 39/5/2 20/6/3 19/7/4
f 12/8/5 36/9/6 33/10/6
f 35/11/7 44/12/8 41/13/8
f 8/14/9 7/15/10 4/16/11
f 1/17/12 27/18/13 28/19/14
f 23/20/15 1/17/12 2/21/16
f 6/22/17 3/23/18 24/24/19
f 5/25/20 4/16/11 3/23/18
f 10/26/21 9/27/22 7/15/10
f 16/28/23 13/29/24 9/27/22
f 12/8/5 11/30/25 14/31/26
f 15/32/27 14/31/26 13/29/24
f 17/33/28 18/34/28 42/35/29
f 40/36/30 37/37/30 18/34/28
f 20/6/3 22/38/31 21/39/32
f 22/38/31 32/40/33 29/41/34
f 25/42/35 24/24/19 23/20/15
f 31/43/36 28/19/14 27/18/13
f 32/40/33 31/43/36 30/44/37
f 36/9/6 35/11/7 34/45/7
f 40/36/30 39/5/2 38/46/38
f 44/12/8 43/47/29 42/35/29
f 83/48/39 64/49/40 63/50/41
f 80/51/42 77/52/43 55/53/44
f 88/54/45 85/55/46 78/56/47
f 72/57/48 46/58/49 45/59/50
f 46/58/49 70/60/51 67/61/52
f 50/62/53 47/63/54 68/64/55
f 49/4/56 48/3/57 47/63/54
f 54/65/58 53/66/59 51/2/60
f 60/67/61 57/68/62 53/66/59
f 56/69/63 55/53/44 58/70/64
f 59/71/65 58/70/64 57/68/62
f 62/72/66 86/73/67 87/74/68
f 81/75/69 62/72/66 61/76/70
f 64/49/40 66/77/71 65/78/72
f 66/77/71 76/79/73 73/80/74
f 69/81/75 68/64/55 67/61/52
f 75/82/76 72/57/48 71/83/77
f 76/79/73 75/82/76 74/84/78
f 79/85/79 78/56/47 77/52/43
f 84/86/80 83/48/39 82/87/81
f 88/54/45 87/74/68 86/73/67
f 146/88/82 147/89/82 89/90/83
f 150/91/84 151/92/84 90/93/83
f 148/94/85 144/95/86 122/96/87
f 122/96/87 109/97/88 91/98/89
f 122/96/87 123/99/90 109/97/88
f 110/100/91 99/101/92 91/98/89
f 124/102/93 92/103/94 111/104/95
f 160/105/96 158/106/97 92/103/94
f 162/107/98 160/105/96 92/103/94
f 112/108/99 111/104/95 93/109/100
f 114/110/101 112/108/99 93/109/100
f 103/111/102 113/112/103 101/113/104
f 104/114/105 103/111/102 94/115/106
f 105/116/107 104/114/105 95/117/108
f 105/116/107 96/118/109 97/119/110
f 106/120/111 97/119/110 98/121/112
f 107/122/113 98/121/112 100/123/114
f 108/124/115 100/123/114 99/101/92
f 102/125/116 101/113/104 113/112/103
f 126/126/117 113/112/103 103/111/102
f 115/127/118 103/111/102 104/114/105
f 116/128/119 104/114/105 105/116/107
f 118/129/120 117/130/121 105/116/107
f 119/131/122 118/129/120 106/120/111
f 120/132/123 119/131/122 107/122/113
f 121/133/124 120/132/123 108/124/115
f 123/99/90 121/133/124 110/100/91
f 124/102/93 111/104/95 112/108/99
f 125/134/125 112/108/99 114/110/101
f 127/135/126 114/110/101 113/112/103
f 128/136/127 169/137/128 126/126/117
f 130/138/129 128/136/127 115/127/118
f 132/139/130 130/138/129 116/128/119
f 132/139/130 117/130/121 118/129/120
f 134/140/131 118/129/120 119/131/122
f 136/141/132 119/131/122 120/132/123
f 138/142/133 120/132/123 121/133/124
f 140/143/134 121/133/124 123/99/90
f 142/144/135 123/99/90 122/96/87
f 124/102/93 125/134/125 164/145/136
f 166/146/137 164/145/136 125/134/125
f 169/137/128 166/146/137 127/135/126
f 169/137/128 128/136/127 129/147/28
f 131/148/29 129/147/28 128/136/127
f 133/149/8 131/148/29 130/138/129
f 135/150/7 133/149/8 132/139/130
f 137/151/6 135/150/7 134/140/131
f 139/152/138 137/151/6 136/141/132
f 141/153/139 139/152/138 138/142/133
f 143/154/140 141/153/139 140/143/134
f 145/155/86 143/154/140 142/144/135
f 149/156/141 145/155/86 144/95/86
f 149/156/141 148/94/85 147/89/82
f 151/92/84 150/91/84 152/157/142
f 155/158/143 153/159/142 152/157/142
f 155/158/143 154/160/143 156/161/144
f 159/162/145 157/163/144 156/161/144
f 159/162/145 158/106/97 160/105/96
f 161/164/146 160/105/96 162/107/98
f 163/165/147 162/107/98 164/145/136
f 167/166/38 165/167/148 164/145/136
f 169/137/128 168/168/30 167/166/38
f 38/46/38 39/5/2 19/7/4
f 11/30/25 12/8/5 33/10/6
f 34/45/7 35/11/7 41/13/8
f 5/25/20 8/14/9 4/16/11
f 2/21/16 1/17/12 28/19/14
f 26/169/149 23/20/15 2/21/16
f 25/42/35 6/22/17 24/24/19
f 6/22/17 5/25/20 3/23/18
f 8/14/9 10/26/21 7/15/10
f 10/26/21 16/28/23 9/27/22
f 15/32/27 12/8/5 14/31/26
f 16/28/23 15/32/27 13/29/24
f 43/47/29 17/33/28 42/35/29
f 17/33/28 40/36/30 18/34/28
f 19/7/4 20/6/3 21/39/32
f 21/39/32 22/38/31 29/41/34
f 26/169/149 25/42/35 23/20/15
f 30/44/37 31/43/36 27/18/13
f 29/41/34 32/40/33 30/44/37
f 33/10/6 36/9/6 34/45/7
f 37/37/30 40/36/30 38/46/38
f 41/13/8 44/12/8 42/35/29
f 82/87/81 83/48/39 63/50/41
f 56/69/63 80/51/42 55/53/44
f 79/85/79 88/54/45 78/56/47
f 71/83/77 72/57/48 45/59/50
f 45/59/50 46/58/49 67/61/52
f 69/81/75 50/62/53 68/64/55
f 50/62/53 49/4/56 47/63/54
f 52/1/150 54/65/58 51/2/60
f 54/65/58 60/67/61 53/66/59
f 59/71/65 56/69/63 58/70/64
f 60/67/61 59/71/65 57/68/62
f 61/76/70 62/72/66 87/74/68
f 84/86/80 81/75/69 61/76/70
f 63/50/41 64/49/40 65/78/72
f 65/78/72 66/77/71 73/80/74
f 70/60/51 69/81/75 67/61/52
f 74/84/78 75/82/76 71/83/77
f 73/80/74 76/79/73 74/84/78
f 80/51/42 79/85/79 77/52/43
f 81/75/69 84/86/80 82/87/81
f 85/55/46 88/54/45 86/73/67
f 90/93/83 146/88/82 89/90/83
f 89/90/83 150/91/84 90/93/83
f 109/97/88 110/100/91 91/98/89
f 124/102/93 162/107/98 92/103/94
f 102/125/116 114/110/101 93/109/100
f 94/115/106 103/111/102 101/113/104
f 95/117/108 104/114/105 94/115/106
f 96/118/109 105/116/107 95/117/108
f 106/120/111 105/116/107 97/119/110
f 107/122/113 106/120/111 98/121/112
f 108/124/115 107/122/113 100/123/114
f 110/100/91 108/124/115 99/101/92
f 114/110/101 102/125/116 113/112/103
f 115/127/118 126/126/117 103/111/102
f 116/128/119 115/127/118 104/114/105
f 117/130/121 116/128/119 105/116/107
f 106/120/111 118/129/120 105/116/107
f 107/122/113 119/131/122 106/120/111
f 108/124/115 120/132/123 107/122/113
f 110/100/91 121/133/124 108/124/115
f 109/97/88 123/99/90 110/100/91
f 125/134/125 124/102/93 112/108/99
f 127/135/126 125/134/125 114/110/101
f 126/126/117 127/135/126 113/112/103
f 115/127/118 128/136/127 126/126/117
f 116/128/119 130/138/129 115/127/118
f 117/130/121 132/139/130 116/128/119
f 134/140/131 132/139/130 118/129/120
f 136/141/132 134/140/131 119/131/122
f 138/142/133 136/141/132 120/132/123
f 140/143/134 138/142/133 121/133/124
f 142/144/135 140/143/134 123/99/90
f 144/95/86 142/144/135 122/96/87
f 162/107/98 124/102/93 164/145/136
f 127/135/126 166/146/137 125/134/125
f 126/126/117 169/137/128 127/135/126
f 168/168/30 169/137/128 129/147/28
f 130/138/129 131/148/29 128/136/127
f 132/139/130 133/149/8 130/138/129
f 134/140/131 135/150/7 132/139/130
f 136/141/132 137/151/6 134/140/131
f 138/142/133 139/152/138 136/141/132
f 140/143/134 141/153/139 138/142/133
f 142/144/135 143/154/140 140/143/134
f 144/95/86 145/155/86 142/144/135
f 148/94/85 149/156/141 144/95/86
f 146/88/82 149/156/141 147/89/82
f 153/159/142 151/92/84 152/157/142
f 154/160/143 155/158/143 152/157/142
f 157/163/144 155/158/143 156/161/144
f 158/106/97 159/162/145 156/161/144
f 161/164/146 159/162/145 160/105/96
f 163/165/147 161/164/146 162/107/98
f 165/167/148 163/165/147 164/145/136
f 166/146/137 167/166/38 164/145/136
f 166/146/137 169/137/128 167/166/38
