# Blender v2.79 (sub 0) OBJ File: ''
# www.blender.org
mtllib RShoulderPitch.mtl
o RShoulderPitch_RShoulderPadMobil.009
v 0.011068 0.029745 -0.025564
v 0.011069 0.024745 -0.003999
v -0.014969 0.028183 -0.025562
v -0.022128 0.021688 -0.025562
v -0.022127 0.018688 -0.007931
v -0.014968 0.023183 -0.005012
v -0.027487 0.012684 -0.025562
v -0.027487 0.012684 -0.011830
v -0.030612 0.004977 -0.025562
v -0.030612 0.004977 -0.017020
v -0.025064 -0.018953 -0.025562
v -0.025064 -0.018953 -0.024473
v -0.031250 -0.002747 -0.025562
v -0.029350 -0.011294 -0.025562
v -0.029349 -0.011294 -0.023808
v -0.031250 -0.002747 -0.020916
v 0.015145 -0.027700 -0.024475
v 0.015145 -0.027700 -0.025564
v 0.030788 -0.006803 -0.025564
v 0.030788 -0.006803 -0.022576
v 0.031426 0.001137 -0.025565
v 0.031427 0.001137 -0.019059
v 0.002329 0.031339 -0.025563
v -0.006590 0.030804 -0.025563
v -0.006589 0.025804 -0.003311
v 0.002330 0.026339 -0.002964
v 0.018916 0.024150 -0.025564
v 0.018917 0.021150 -0.006334
v 0.029525 0.009264 -0.025564
v 0.025240 0.015847 -0.025564
v 0.025240 0.015847 -0.009778
v 0.029526 0.009264 -0.014053
v -0.018740 -0.025276 -0.025562
v -0.010892 -0.029562 -0.025563
v -0.010892 -0.029562 -0.024474
v -0.018740 -0.025276 -0.024474
v 0.022304 -0.022341 -0.025564
v 0.027663 -0.015182 -0.025564
v 0.027663 -0.015182 -0.024476
v 0.022304 -0.022341 -0.024476
v -0.002153 -0.031463 -0.025563
v 0.006766 -0.030825 -0.025563
v 0.006766 -0.030825 -0.024475
v -0.002153 -0.031463 -0.024474
v 0.011069 0.024745 -0.003999
v 0.011646 0.026139 -0.003038
v -0.014968 0.023183 -0.005012
v -0.022127 0.018688 -0.007931
v -0.023297 0.019764 -0.007176
v -0.015761 0.024495 -0.004104
v -0.027487 0.012684 -0.011830
v -0.028938 0.013444 -0.011280
v -0.030612 0.004977 -0.017020
v -0.032228 0.005330 -0.016744
v -0.025064 -0.018953 -0.024473
v -0.026388 -0.019859 -0.024590
v -0.031250 -0.002747 -0.020916
v -0.029349 -0.011294 -0.023808
v -0.030899 -0.011797 -0.023890
v -0.032900 -0.002800 -0.020845
v 0.015938 -0.029066 -0.024592
v 0.015145 -0.027700 -0.024475
v 0.030788 -0.006803 -0.022576
v 0.032404 -0.007070 -0.022592
v 0.031427 0.001137 -0.019059
v 0.033076 0.001288 -0.018890
v 0.002330 0.026339 -0.002964
v -0.006589 0.025804 -0.003311
v -0.006941 0.027254 -0.002313
v 0.002448 0.027817 -0.001948
v 0.018917 0.021150 -0.006334
v 0.019908 0.022355 -0.005495
v 0.029526 0.009264 -0.014053
v 0.025240 0.015847 -0.009778
v 0.026564 0.016773 -0.009121
v 0.031075 0.009844 -0.013621
v -0.018740 -0.025276 -0.024474
v -0.010892 -0.029562 -0.024474
v -0.011470 -0.031026 -0.024590
v -0.019731 -0.026515 -0.024590
v 0.022304 -0.022341 -0.024476
v 0.027663 -0.015182 -0.024476
v 0.029115 -0.015889 -0.024592
v 0.023473 -0.023425 -0.024592
v -0.002153 -0.031463 -0.024474
v 0.006766 -0.030825 -0.024475
v 0.007118 -0.032356 -0.024591
v -0.002271 -0.033027 -0.024591
v 0.015938 -0.029066 -0.024592
v 0.015938 -0.029066 -0.025792
v 0.033076 0.001288 -0.018890
v -0.030899 -0.011797 -0.023890
v -0.032228 0.005330 -0.016744
v -0.015761 0.024495 -0.004104
v -0.006941 0.027254 -0.002313
v 0.002448 0.027817 -0.001948
v 0.011646 0.026139 -0.003038
v 0.019908 0.022355 -0.005495
v 0.031075 0.009844 -0.013621
v 0.026564 0.016773 -0.009121
v -0.023297 0.019764 -0.007176
v -0.028938 0.013444 -0.011280
v -0.015761 0.027050 -0.011147
v -0.006941 0.030179 -0.010131
v 0.002448 0.030817 -0.009924
v 0.011646 0.028914 -0.010543
v 0.019908 0.024624 -0.011937
v 0.026564 0.018294 -0.013995
v 0.033076 0.001688 -0.019390
v 0.031075 0.010436 -0.016548
v -0.032900 -0.002800 -0.020845
v -0.032228 0.006130 -0.017944
v -0.023297 0.021685 -0.012890
v -0.028938 0.014518 -0.015219
v -0.015761 0.028636 -0.017572
v -0.006942 0.031894 -0.017115
v 0.002448 0.032559 -0.017022
v 0.011646 0.030577 -0.017301
v 0.019908 0.026110 -0.017929
v 0.026564 0.019518 -0.018856
v 0.031075 0.011337 -0.020006
v 0.032404 -0.007070 -0.022592
v 0.033076 0.002228 -0.021286
v -0.032900 -0.002444 -0.021939
v -0.032228 0.006854 -0.020633
v -0.023297 0.023050 -0.018357
v -0.028938 0.015587 -0.019405
v -0.015762 0.028987 -0.024590
v -0.015762 0.028987 -0.025790
v -0.006942 0.032277 -0.024591
v -0.006942 0.032277 -0.025791
v 0.002447 0.032948 -0.024591
v 0.002447 0.032948 -0.025791
v 0.011646 0.030947 -0.024592
v 0.011645 0.030947 -0.025792
v 0.019907 0.026436 -0.024592
v 0.019907 0.026436 -0.025792
v 0.026564 0.019780 -0.024592
v 0.026563 0.019780 -0.025792
v 0.031075 0.011518 -0.024592
v 0.031075 0.011518 -0.025792
v 0.033076 0.002320 -0.024593
v 0.033076 0.002320 -0.025793
v 0.032404 -0.007070 -0.024592
v 0.032404 -0.007070 -0.025792
v 0.023473 -0.023425 -0.025792
v 0.023473 -0.023425 -0.024592
v 0.029115 -0.015889 -0.024592
v 0.029115 -0.015889 -0.025792
v 0.007118 -0.032356 -0.024591
v 0.007118 -0.032356 -0.025791
v -0.002271 -0.033027 -0.024591
v -0.002271 -0.033027 -0.025791
v -0.011470 -0.031026 -0.024590
v -0.011470 -0.031026 -0.025790
v -0.019731 -0.026515 -0.024590
v -0.019731 -0.026515 -0.025790
v -0.026388 -0.019859 -0.024590
v -0.026388 -0.019859 -0.025790
v -0.030899 -0.011597 -0.024590
v -0.030899 -0.011597 -0.025790
v -0.032900 -0.002399 -0.024589
v -0.032900 -0.002399 -0.025789
v -0.032228 0.006990 -0.024589
v -0.032228 0.006990 -0.025789
v -0.028939 0.015810 -0.024590
v -0.028939 0.015810 -0.025790
v -0.023298 0.023346 -0.025790
v -0.023297 0.023346 -0.024590
vt 0.232403 0.213221
vt 0.232198 0.216141
vt 0.217081 0.216128
vt 0.216495 0.213221
vt 0.154438 0.304515
vt 0.143520 0.317119
vt 0.141074 0.312174
vt 0.144927 0.225242
vt 0.143948 0.226827
vt 0.130527 0.220929
vt 0.164432 0.247736
vt 0.162721 0.248508
vt 0.154954 0.236245
vt 0.054608 0.224684
vt 0.080875 0.238245
vt 0.072775 0.252580
vt 0.079022 0.295841
vt 0.090118 0.303503
vt 0.066309 0.332764
vt 0.073145 0.286740
vt 0.048986 0.320062
vt 0.030854 0.262939
vt 0.069096 0.265272
vt 0.069680 0.276163
vt 0.038793 0.241769
vt 0.078052 0.215155
vt 0.090090 0.228027
vt 0.097978 0.213221
vt 0.101401 0.221611
vt 0.131030 0.219100
vt 0.115979 0.218879
vt 0.115874 0.215710
vt 0.166217 0.277516
vt 0.166622 0.262740
vt 0.168557 0.262508
vt 0.161583 0.291218
vt 0.168058 0.277862
vt 0.129695 0.328757
vt 0.128675 0.316194
vt 0.108775 0.337643
vt 0.115393 0.315810
vt 0.030854 0.284117
vt 0.087225 0.338926
vt 0.103614 0.311465
vt 0.156349 0.235018
vt 0.163198 0.292045
vt 0.153035 0.303147
vt 0.216413 0.323643
vt 0.201137 0.318837
vt 0.202435 0.316441
vt 0.280297 0.269329
vt 0.277613 0.269301
vt 0.276272 0.254154
vt 0.270763 0.299062
vt 0.268573 0.297622
vt 0.275029 0.284131
vt 0.168633 0.267810
vt 0.170982 0.252281
vt 0.173818 0.253222
vt 0.177602 0.238014
vt 0.180112 0.239667
vt 0.201287 0.217658
vt 0.202627 0.220335
vt 0.189973 0.228402
vt 0.249056 0.218688
vt 0.248055 0.221356
vt 0.262361 0.226633
vt 0.260718 0.228877
vt 0.278911 0.253422
vt 0.271042 0.240307
vt 0.273330 0.238764
vt 0.246105 0.316806
vt 0.258686 0.308800
vt 0.260367 0.310815
vt 0.231804 0.320994
vt 0.247133 0.319236
vt 0.188383 0.310473
vt 0.190333 0.308505
vt 0.177111 0.297678
vt 0.179631 0.296355
vt 0.187974 0.226154
vt 0.170733 0.283358
vt 0.171582 0.267978
vt 0.173574 0.282751
vt 0.277556 0.284889
vt 0.232082 0.323643
vt 0.216928 0.320997
vt 0.037521 0.159259
vt 0.035568 0.160162
vt 0.030854 0.144329
vt 0.030956 0.127989
vt 0.033023 0.128325
vt 0.032956 0.144042
vt 0.044868 0.174163
vt 0.058235 0.183728
vt 0.056637 0.187052
vt 0.071284 0.196743
vt 0.070434 0.197623
vt 0.072611 0.193412
vt 0.088394 0.202092
vt 0.088185 0.208360
vt 0.109259 0.083269
vt 0.091092 0.081074
vt 0.109635 0.081074
vt 0.091210 0.082426
vt 0.073769 0.082244
vt 0.107140 0.087619
vt 0.127237 0.086954
vt 0.127850 0.084081
vt 0.142765 0.097509
vt 0.159703 0.131456
vt 0.154181 0.113054
vt 0.166846 0.107016
vt 0.159008 0.150507
vt 0.177199 0.129425
vt 0.152755 0.168549
vt 0.178020 0.154403
vt 0.169624 0.177537
vt 0.154474 0.196843
vt 0.141144 0.183843
vt 0.133303 0.209391
vt 0.125677 0.195416
vt 0.109738 0.213144
vt 0.107408 0.201818
vt 0.149414 0.091337
vt 0.144472 0.117328
vt 0.147568 0.132647
vt 0.146082 0.147874
vt 0.131703 0.174825
vt 0.140416 0.161960
vt 0.119753 0.185349
vt 0.105177 0.192533
vt 0.088937 0.195393
vt 0.124620 0.091533
vt 0.136689 0.103097
vt 0.137201 0.132704
vt 0.135204 0.120108
vt 0.135625 0.145061
vt 0.130507 0.156686
vt 0.123139 0.167644
vt 0.113459 0.176982
vt 0.101617 0.183986
vt 0.087996 0.187868
vt 0.073330 0.187935
vt 0.120102 0.096573
vt 0.129582 0.107696
vt 0.135580 0.132742
vt 0.134068 0.144640
vt 0.121817 0.166546
vt 0.129033 0.155876
vt 0.112389 0.175592
vt 0.087725 0.186028
vt 0.100896 0.182336
vt 0.073577 0.186006
vt 0.059134 0.181845
vt 0.046483 0.172617
vt 0.035774 0.112635
vt 0.046482 0.100526
vt 0.037609 0.113518
vt 0.044861 0.099038
vt 0.057885 0.088456
vt 0.058950 0.090292
vt 0.074175 0.084527
vt 0.090843 0.084605
vt 0.106208 0.089498
vt 0.118830 0.097987
vt 0.133622 0.120591
vt 0.128015 0.108712
vt 0.037658 0.303286
vn 0.0218 -0.5581 0.8295
vn -0.8819 0.4713 0.0000
vn -0.9815 0.1914 0.0000
vn -0.9762 0.2168 0.0000
vn 0.5993 0.8005 0.0000
vn 0.7974 0.6034 -0.0000
vn 0.0713 0.9974 0.0000
vn 0.3494 0.9369 0.0000
vn 0.8516 -0.5218 -0.0485
vn 0.8956 -0.4449 -0.0000
vn 0.7488 -0.6571 -0.0859
vn -0.3562 -0.9147 -0.1907
vn -0.6672 -0.7400 -0.0851
vn -0.5695 -0.8073 -0.1548
vn -0.0598 -0.9735 -0.2205
vn -0.3182 -0.9244 -0.2101
vn 0.4404 -0.8740 -0.2053
vn 0.4619 -0.8657 -0.1929
vn 0.1780 -0.9587 -0.2217
vn 0.6769 -0.7209 -0.1484
vn 0.9605 -0.2783 -0.0000
vn 0.9728 -0.2317 -0.0000
vn 0.9995 0.0320 -0.0000
vn 0.9977 0.0681 -0.0000
vn 0.7994 0.6008 -0.0000
vn 0.9343 0.3565 -0.0000
vn 0.9402 0.3404 -0.0000
vn -0.4792 0.8777 0.0000
vn -0.2126 0.9771 0.0000
vn -0.7071 0.7071 0.0000
vn -0.9927 -0.1202 0.0000
vn -0.9972 -0.0747 0.0000
vn -0.8951 -0.4459 0.0000
vn -0.9197 -0.3926 0.0000
vn 0.1928 -0.9576 -0.2138
vn -0.7611 -0.6465 -0.0524
vn -0.8173 -0.5761 0.0000
vn -0.8777 0.4792 0.0000
vn 0.0157 -0.1310 0.9912
vn -0.0417 -0.3114 0.9493
vn -0.0406 -0.3049 0.9515
vn -0.0440 -0.0585 0.9973
vn -0.0436 -0.0587 0.9973
vn -0.0367 -0.0744 0.9966
vn -0.0052 -0.0738 0.9973
vn -0.0256 -0.0691 0.9973
vn -0.0158 -0.5623 0.8267
vn -0.0091 -0.5651 0.8249
vn -0.0092 -0.5651 0.8250
vn -0.0018 -0.5663 0.8242
vn 0.0126 -0.5639 0.8257
vn 0.0128 -0.5639 0.8257
vn 0.0056 -0.5659 0.8245
vn 0.0189 -0.5604 0.8280
vn 0.0190 -0.5602 0.8281
vn 0.0345 -0.5121 0.8582
vn 0.0360 -0.5072 0.8610
vn 0.0197 -0.5609 0.8276
vn 0.0519 -0.3854 0.9212
vn 0.0519 -0.3805 0.9233
vn -0.0357 -0.0757 0.9965
vn 0.0143 -0.2026 0.9792
vn 0.0163 -0.2084 0.9779
vn 0.0351 -0.0646 0.9973
vn 0.0157 -0.0722 0.9973
vn 0.0158 -0.0722 0.9973
vn 0.0514 -0.0517 0.9973
vn 0.0354 -0.0644 0.9973
vn -0.0470 -0.4697 0.8815
vn -0.0478 -0.4642 0.8844
vn -0.0305 -0.5438 0.8386
vn -0.0313 -0.5424 0.8395
vn 0.0056 -0.5659 0.8244
vn -0.0215 -0.5581 0.8295
vn -0.0160 -0.5622 0.8268
vn -0.0217 -0.5579 0.8296
vn -0.0258 -0.0690 0.9973
vn 0.0517 -0.0513 0.9973
vn 0.0179 -0.1266 0.9918
vn 0.7071 -0.7071 0.0000
vn 0.4792 -0.8777 0.0000
vn 0.2126 -0.9771 0.0000
vn 0.8819 -0.4713 -0.0000
vn 0.9771 -0.2126 -0.0000
vn 0.9825 -0.1859 -0.0024
vn 0.9958 0.0791 0.0446
vn 0.9984 0.0482 0.0275
vn 0.9966 0.0810 0.0125
vn 0.9379 0.3377 0.0795
vn 0.9250 0.3705 0.0840
vn -0.9985 -0.0540 -0.0093
vn -0.9313 -0.3512 -0.0960
vn -0.9981 -0.0583 -0.0179
vn -0.9400 -0.3378 -0.0467
vn -0.8025 -0.5965 -0.0032
vn -0.9976 -0.0696 -0.0012
vn -0.9736 0.2069 0.0962
vn -0.9777 0.1816 0.1052
vn -0.8788 0.4606 0.1245
vn -0.4753 0.8422 0.2545
vn -0.7029 0.6832 0.1977
vn -0.6884 0.6860 0.2355
vn -0.2103 0.9344 0.2876
vn -0.4635 0.8321 0.3044
vn 0.0705 0.9531 0.2944
vn -0.2043 0.9167 0.3435
vn 0.0684 0.9337 0.3513
vn 0.3370 0.8825 0.3279
vn 0.3462 0.8972 0.2741
vn 0.5815 0.7662 0.2734
vn 0.5950 0.7704 0.2288
vn 0.7822 0.5930 0.1910
vn 0.7970 0.5820 0.1616
vn -0.8666 0.4794 0.1384
vn -0.7030 0.7036 0.1035
vn -0.4758 0.8701 0.1280
vn -0.2108 0.9671 0.1422
vn 0.3468 0.9279 0.1364
vn 0.0707 0.9869 0.1450
vn 0.5954 0.7949 0.1169
vn 0.7965 0.5982 0.0880
vn 0.9340 0.3535 0.0524
vn -0.9751 0.2192 0.0329
vn -0.8740 0.4806 0.0710
vn -0.4780 0.8781 0.0217
vn -0.7057 0.7082 0.0166
vn -0.2119 0.9770 0.0248
vn 0.0711 0.9971 0.0255
vn 0.3485 0.9370 0.0235
vn 0.5979 0.8013 0.0193
vn 0.7993 0.6007 0.0134
vn 0.9363 0.3511 0.0067
vn 0.9973 0.0725 0.0010
vn -0.9768 0.2141 0.0037
vn -0.8767 0.4809 0.0102
vn 0.9369 0.3494 -0.0000
vn 0.8005 0.5993 -0.0000
vn 0.9974 0.0713 -0.0000
vn 0.8777 -0.4792 -0.0000
vn -0.0713 -0.9974 0.0000
vn -0.3494 -0.9369 0.0000
vn -0.5993 -0.8005 0.0000
vn -0.8005 -0.5993 0.0000
vn -0.9369 -0.3494 0.0000
vn -0.9974 -0.0713 0.0000
vn -0.9771 0.2126 0.0000
vn -0.0648 -0.9743 -0.2156
vn 0.0199 -0.5606 0.8278
usemtl RShoulderPitchUV.009
s off
f 52/1/1 51/2/1 48/3/1
f 49/4/1 52/1/1 48/3/1
s 1
f 39/5/2 20/6/3 19/7/4
f 36/8/5 33/9/5 11/10/6
f 44/11/7 41/12/7 34/13/8
f 8/14/9 7/15/10 4/16/11
f 1/17/12 27/18/13 28/19/14
f 23/20/15 1/17/12 2/21/16
f 6/22/17 3/23/18 24/24/19
f 5/25/20 4/16/11 3/23/18
f 10/26/21 9/27/22 7/15/10
f 16/28/23 13/29/24 9/27/22
f 12/30/25 11/10/6 14/31/26
f 15/32/27 14/31/26 13/29/24
f 18/33/28 42/34/29 43/35/29
f 37/36/30 18/33/28 17/37/28
f 20/6/3 22/38/31 21/39/32
f 22/38/31 32/40/33 29/41/34
f 25/42/35 24/24/19 23/20/15
f 31/43/36 28/19/14 27/18/13
f 32/40/33 31/43/36 30/44/37
f 35/45/8 34/13/8 33/9/5
f 40/46/30 39/5/2 38/47/38
f 43/35/29 42/34/29 41/12/7
f 83/48/39 64/49/40 63/50/41
f 80/51/42 77/52/43 55/53/44
f 88/54/45 85/55/45 78/56/46
f 72/57/47 46/58/48 45/59/49
f 46/58/48 70/60/50 67/61/50
f 50/62/51 47/63/52 68/64/53
f 49/4/54 48/3/55 47/63/52
f 54/65/56 53/66/57 51/2/58
f 60/67/59 57/68/60 53/66/57
f 56/69/61 55/53/44 58/70/62
f 59/71/63 58/70/62 57/68/60
f 62/72/64 86/73/65 87/74/66
f 81/75/67 62/72/64 61/76/68
f 64/49/40 66/77/69 65/78/70
f 66/77/69 76/79/71 73/80/72
f 69/81/73 68/64/53 67/61/50
f 75/82/74 72/57/47 71/83/75
f 76/79/71 75/82/74 74/84/76
f 79/85/77 78/56/46 77/52/43
f 84/86/78 83/48/39 82/87/79
f 88/54/45 87/74/66 86/73/65
f 146/88/80 147/89/80 89/90/81
f 150/91/82 151/92/82 90/93/81
f 148/94/83 144/95/84 122/96/85
f 122/96/85 109/97/86 91/98/87
f 122/96/85 123/99/88 109/97/86
f 110/100/89 99/101/90 91/98/87
f 124/102/91 92/103/92 111/104/93
f 160/105/94 158/106/95 92/103/92
f 162/107/96 160/105/94 92/103/92
f 112/108/97 111/104/93 93/109/98
f 114/110/99 112/108/97 93/109/98
f 103/111/100 113/112/101 101/113/102
f 104/114/103 103/111/100 94/115/104
f 105/116/105 104/114/103 95/117/106
f 105/116/105 96/118/107 97/119/108
f 106/120/109 97/119/108 98/121/110
f 107/122/111 98/121/110 100/123/112
f 108/124/113 100/123/112 99/101/90
f 102/125/114 101/113/102 113/112/101
f 126/126/115 113/112/101 103/111/100
f 115/127/116 103/111/100 104/114/103
f 116/128/117 104/114/103 105/116/105
f 118/129/118 117/130/119 105/116/105
f 119/131/120 118/129/118 106/120/109
f 120/132/121 119/131/120 107/122/111
f 121/133/122 120/132/121 108/124/113
f 123/99/88 121/133/122 110/100/89
f 124/102/91 111/104/93 112/108/97
f 125/134/123 112/108/97 114/110/99
f 127/135/124 114/110/99 113/112/101
f 128/136/125 169/137/126 126/126/115
f 130/138/127 128/136/125 115/127/116
f 132/139/128 130/138/127 116/128/117
f 132/139/128 117/130/119 118/129/118
f 134/140/129 118/129/118 119/131/120
f 136/141/130 119/131/120 120/132/121
f 138/142/131 120/132/121 121/133/122
f 140/143/132 121/133/122 123/99/88
f 142/144/133 123/99/88 122/96/85
f 124/102/91 125/134/123 164/145/134
f 166/146/135 164/145/134 125/134/123
f 169/137/126 166/146/135 127/135/124
f 169/137/126 128/136/125 129/147/28
f 129/147/28 128/136/125 130/138/127
f 131/148/29 130/138/127 132/139/128
f 135/149/8 133/150/7 132/139/128
f 137/151/5 135/149/8 134/140/129
f 137/151/5 136/141/130 138/142/131
f 141/152/136 139/153/137 138/142/131
f 143/154/138 141/152/136 140/143/132
f 145/155/84 143/154/138 142/144/133
f 149/156/139 145/155/84 144/95/84
f 148/94/83 147/89/80 146/88/80
f 151/92/82 150/91/82 152/157/140
f 155/158/141 153/159/140 152/157/140
f 154/160/141 156/161/142 157/162/142
f 159/163/143 157/162/142 156/161/142
f 159/163/143 158/106/95 160/105/94
f 161/164/144 160/105/94 162/107/96
f 163/165/145 162/107/96 164/145/134
f 165/166/146 164/145/134 166/146/135
f 169/137/126 168/167/30 167/168/38
f 38/47/38 39/5/2 19/7/4
f 12/30/25 36/8/5 11/10/6
f 35/45/8 44/11/7 34/13/8
f 5/25/20 8/14/9 4/16/11
f 2/21/16 1/17/12 28/19/14
f 26/169/147 23/20/15 2/21/16
f 25/42/35 6/22/17 24/24/19
f 6/22/17 5/25/20 3/23/18
f 8/14/9 10/26/21 7/15/10
f 10/26/21 16/28/23 9/27/22
f 15/32/27 12/30/25 14/31/26
f 16/28/23 15/32/27 13/29/24
f 17/37/28 18/33/28 43/35/29
f 40/46/30 37/36/30 17/37/28
f 19/7/4 20/6/3 21/39/32
f 21/39/32 22/38/31 29/41/34
f 26/169/147 25/42/35 23/20/15
f 30/44/37 31/43/36 27/18/13
f 29/41/34 32/40/33 30/44/37
f 36/8/5 35/45/8 33/9/5
f 37/36/30 40/46/30 38/47/38
f 44/11/7 43/35/29 41/12/7
f 82/87/79 83/48/39 63/50/41
f 56/69/61 80/51/42 55/53/44
f 79/85/77 88/54/45 78/56/46
f 71/83/75 72/57/47 45/59/49
f 45/59/49 46/58/48 67/61/50
f 69/81/73 50/62/51 68/64/53
f 50/62/51 49/4/54 47/63/52
f 52/1/148 54/65/56 51/2/58
f 54/65/56 60/67/59 53/66/57
f 59/71/63 56/69/61 58/70/62
f 60/67/59 59/71/63 57/68/60
f 61/76/68 62/72/64 87/74/66
f 84/86/78 81/75/67 61/76/68
f 63/50/41 64/49/40 65/78/70
f 65/78/70 66/77/69 73/80/72
f 70/60/50 69/81/73 67/61/50
f 74/84/76 75/82/74 71/83/75
f 73/80/72 76/79/71 74/84/76
f 80/51/42 79/85/77 77/52/43
f 81/75/67 84/86/78 82/87/79
f 85/55/45 88/54/45 86/73/65
f 90/93/81 146/88/80 89/90/81
f 89/90/81 150/91/82 90/93/81
f 109/97/86 110/100/89 91/98/87
f 124/102/91 162/107/96 92/103/92
f 102/125/114 114/110/99 93/109/98
f 94/115/104 103/111/100 101/113/102
f 95/117/106 104/114/103 94/115/104
f 96/118/107 105/116/105 95/117/106
f 106/120/109 105/116/105 97/119/108
f 107/122/111 106/120/109 98/121/110
f 108/124/113 107/122/111 100/123/112
f 110/100/89 108/124/113 99/101/90
f 114/110/99 102/125/114 113/112/101
f 115/127/116 126/126/115 103/111/100
f 116/128/117 115/127/116 104/114/103
f 117/130/119 116/128/117 105/116/105
f 106/120/109 118/129/118 105/116/105
f 107/122/111 119/131/120 106/120/109
f 108/124/113 120/132/121 107/122/111
f 110/100/89 121/133/122 108/124/113
f 109/97/86 123/99/88 110/100/89
f 125/134/123 124/102/91 112/108/97
f 127/135/124 125/134/123 114/110/99
f 126/126/115 127/135/124 113/112/101
f 115/127/116 128/136/125 126/126/115
f 116/128/117 130/138/127 115/127/116
f 117/130/119 132/139/128 116/128/117
f 134/140/129 132/139/128 118/129/118
f 136/141/130 134/140/129 119/131/120
f 138/142/131 136/141/130 120/132/121
f 140/143/132 138/142/131 121/133/122
f 142/144/133 140/143/132 123/99/88
f 144/95/84 142/144/133 122/96/85
f 162/107/96 124/102/91 164/145/134
f 127/135/124 166/146/135 125/134/123
f 126/126/115 169/137/126 127/135/124
f 168/167/30 169/137/126 129/147/28
f 131/148/29 129/147/28 130/138/127
f 133/150/7 131/148/29 132/139/128
f 134/140/129 135/149/8 132/139/128
f 136/141/130 137/151/5 134/140/129
f 139/153/137 137/151/5 138/142/131
f 140/143/132 141/152/136 138/142/131
f 142/144/133 143/154/138 140/143/132
f 144/95/84 145/155/84 142/144/133
f 148/94/83 149/156/139 144/95/84
f 149/156/139 148/94/83 146/88/80
f 153/159/140 151/92/82 152/157/140
f 154/160/141 155/158/141 152/157/140
f 155/158/141 154/160/141 157/162/142
f 158/106/95 159/163/143 156/161/142
f 161/164/144 159/163/143 160/105/94
f 163/165/145 161/164/144 162/107/96
f 165/166/146 163/165/145 164/145/134
f 167/168/38 165/166/146 166/146/135
f 166/146/135 169/137/126 167/168/38
